<?xml version="1.0" encoding="UTF-8"?><svg xmlns="http://www.w3.org/2000/svg" viewBox="0 0 101.6 93.6"><defs><style>.f,.g{fill:#9000ff;}.h{fill:#5806a5;stroke-linejoin:round;}.h,.g{stroke-width:5.2px;}.h,.g,.i{fill-rule:evenodd;stroke:#000;}.i{fill:#003b5b;stroke-width:2.1px;}</style></defs><g id="a"/><g id="b"><g id="c"><g id="d"><g id="e"><g><path class="h" d="M7.1,66c5.8,19.8,29.7,30,54.1,22.7,23-6.9,42.9-24.7,36.6-45.5-1.6-5.4-2.7-9.2-3.5-11.8s-3.8-4.5-6.6-3.7L8.3,50.5c-2.8,.8-4.4,3.7-3.7,6.5s1.3,4.9,2.5,8.9Z"/><path class="g" d="M36.8,5C12.5,12.1-1.9,33.6,3.9,53.2c5.8,19.7,30,30.8,54.7,24.7,25.5-6.3,41.6-28.4,35.3-49.2C87.6,8.1,61.7-2.4,36.8,5Z"/><path class="i" d="M39.7,12.4C19.7,18.4,7.6,35.5,12.1,50.9c4.5,15.5,24.3,24,44.6,18.9,21-5.3,34.5-22.9,29.6-39.2-4.9-16.2-26-24.3-46.6-18.2Z"/><path class="f" d="M55.5,41.1h0c-.3,0-1.8,.4-5.3,.9-2.8,.4-4.7,.7-5.4,.7h0c-10.6,1.3-18.7,1.1-19-.6s7.4-4.4,17.9-6.4l.9,5.6c.7,0,2.7-.3,5.4-.7s4.9-.9,5.2-.9l-.9-5.6c10.6-1.3,18.7-1.1,19,.6s-7.4,4.3-17.9,6.3m-1.2-7.6l-.8-5,14.7-2.3-1.2-7.6-40.1,6.2,1.2,7.6,14.7-2.3,.8,5c-11.9,2.3-20.6,5.5-20.3,7.7s9.6,2.6,21.7,1.2l2.5,16,10.6-1.6-2.5-16c11.9-2.3,20.6-5.5,20.2-7.7s-9.6-2.6-21.6-1.2"/></g></g></g></g></g></svg>