<svg width="159" height="33" viewBox="0 0 159 33" fill="none" xmlns="http://www.w3.org/2000/svg">
<path d="M14.28 14.96C13.992 13.488 13.44 12.432 12.624 11.792C11.808 11.136 10.664 10.808 9.192 10.808C8.104 10.808 7.16 11.056 6.36 11.552C5.56 12.048 4.936 12.776 4.488 13.736C4.056 14.696 3.84 15.848 3.84 17.192C3.84 18.456 4.056 19.56 4.488 20.504C4.936 21.448 5.56 22.184 6.36 22.712C7.176 23.224 8.12 23.48 9.192 23.48C10.648 23.48 11.776 23.144 12.576 22.472C13.392 21.784 13.976 20.656 14.328 19.088H17.184C16.864 21.536 15.984 23.344 14.544 24.512C13.104 25.664 11.32 26.24 9.192 26.24C7.752 26.24 6.416 25.88 5.184 25.16C3.952 24.424 2.96 23.368 2.208 21.992C1.456 20.616 1.08 19.016 1.08 17.192C1.08 15.336 1.448 13.72 2.184 12.344C2.936 10.952 3.928 9.888 5.16 9.152C6.408 8.416 7.752 8.048 9.192 8.048C11.288 8.048 13.048 8.608 14.472 9.728C15.896 10.848 16.784 12.592 17.136 14.96H14.28ZM18.8578 13.088H21.4498V26H18.8578V13.088ZM21.1378 19.16C21.1378 17.992 21.2658 16.96 21.5218 16.064C21.7778 15.152 22.2098 14.432 22.8178 13.904C23.4418 13.36 24.2578 13.088 25.2658 13.088C25.6818 13.088 26.0418 13.12 26.3458 13.184C26.6658 13.248 26.9378 13.336 27.1618 13.448V16.208C26.8418 16.016 26.5378 15.88 26.2498 15.8C25.9618 15.72 25.6338 15.68 25.2658 15.68C24.4498 15.68 23.7538 15.808 23.1778 16.064C22.6178 16.304 22.1858 16.688 21.8818 17.216C21.5938 17.728 21.4498 18.376 21.4498 19.16H21.1378ZM28.3622 13.088H31.0742L35.7782 26H33.0902L28.3622 13.088ZM29.5382 29.672C30.3862 29.672 31.0822 29.36 31.6262 28.736C32.1702 28.112 32.6582 27.2 33.0902 26L37.7942 13.088H40.5062L35.7782 26L35.7302 26.144C35.2662 27.392 34.8102 28.424 34.3622 29.24C33.9142 30.072 33.2902 30.776 32.4902 31.352C31.7062 31.944 30.7222 32.24 29.5382 32.24V29.672ZM43.5951 19.448C43.5951 17.32 44.0591 15.688 44.9871 14.552C45.9311 13.416 47.2671 12.848 48.9951 12.848C50.1631 12.848 51.2111 13.112 52.1391 13.64C53.0671 14.152 53.8031 14.904 54.3471 15.896C54.8911 16.888 55.1631 18.072 55.1631 19.448H52.5951C52.5951 18.248 52.2431 17.28 51.5391 16.544C50.8511 15.808 49.9391 15.44 48.8031 15.44C47.6191 15.44 46.6431 15.744 45.8751 16.352C45.1231 16.96 44.7471 17.992 44.7471 19.448H43.5951ZM44.7471 30.8H42.1791V13.088H44.7471V30.8ZM44.7471 19.448C44.7471 20.904 45.1231 21.944 45.8751 22.568C46.6431 23.176 47.6191 23.48 48.8031 23.48C49.9391 23.48 50.8511 23.112 51.5391 22.376C52.2431 21.624 52.5951 20.648 52.5951 19.448H55.1631C55.1631 20.84 54.8911 22.032 54.3471 23.024C53.8031 24 53.0671 24.752 52.1391 25.28C51.2111 25.792 50.1631 26.048 48.9951 26.048C47.8591 26.048 46.8911 25.784 46.0911 25.256C45.2911 24.728 44.6751 23.968 44.2431 22.976C43.8111 21.984 43.5951 20.808 43.5951 19.448H44.7471ZM59.1197 9.008L61.7117 8.288V21.2H59.1197V9.008ZM59.1197 13.088V15.44H56.8397V13.088H59.1197ZM64.1597 13.088V15.44H61.7117V13.088H64.1597ZM64.1597 26C62.9437 26 61.9757 25.864 61.2557 25.592C60.5357 25.304 59.9997 24.816 59.6477 24.128C59.2957 23.424 59.1197 22.448 59.1197 21.2H61.7117C61.7117 21.904 61.7517 22.392 61.8317 22.664C61.9277 22.92 62.1197 23.088 62.4077 23.168C62.7117 23.232 63.2957 23.264 64.1597 23.264V26ZM71.3419 26.24C70.0299 26.24 68.9019 25.96 67.9579 25.4C67.0139 24.824 66.3019 24.04 65.8219 23.048C65.3419 22.04 65.1019 20.872 65.1019 19.544C65.1019 18.232 65.3419 17.072 65.8219 16.064C66.3019 15.056 67.0139 14.272 67.9579 13.712C68.9019 13.136 70.0299 12.848 71.3419 12.848C72.6699 12.848 73.7979 13.136 74.7259 13.712C75.6699 14.272 76.3819 15.056 76.8619 16.064C77.3579 17.072 77.6059 18.232 77.6059 19.544C77.6059 20.872 77.3579 22.04 76.8619 23.048C76.3819 24.04 75.6699 24.824 74.7259 25.4C73.7979 25.96 72.6699 26.24 71.3419 26.24ZM71.3419 23.648C72.5099 23.648 73.4139 23.28 74.0539 22.544C74.6939 21.808 75.0139 20.808 75.0139 19.544C75.0139 18.28 74.6939 17.28 74.0539 16.544C73.4139 15.808 72.5099 15.44 71.3419 15.44C70.1899 15.44 69.2939 15.808 68.6539 16.544C68.0139 17.28 67.6939 18.28 67.6939 19.544C67.6939 20.808 68.0139 21.808 68.6539 22.544C69.2939 23.28 70.1899 23.648 71.3419 23.648Z" fill="url(#paint0_linear_253_92)"/>
<rect x="83" width="75.6378" height="32" rx="6" fill="url(#paint1_linear_253_92)"/>
<path d="M96.856 11.98C97.864 11.98 98.712 12.18 99.4 12.58C100.088 12.98 100.608 13.596 100.96 14.428C101.328 15.26 101.512 16.324 101.512 17.62V24.58H99.232V17.62C99.232 16.436 99.04 15.572 98.656 15.028C98.272 14.468 97.672 14.188 96.856 14.188V11.98ZM91 11.98H93.28V24.58H91V11.98ZM92.968 17.62C92.968 15.668 93.304 14.244 93.976 13.348C94.664 12.436 95.624 11.98 96.856 11.98V14.188C95.832 14.188 94.976 14.468 94.288 15.028C93.616 15.572 93.28 16.436 93.28 17.62H92.968ZM105.088 11.98C106.16 11.98 107.048 12.18 107.752 12.58C108.456 12.98 108.984 13.596 109.336 14.428C109.688 15.244 109.864 16.308 109.864 17.62V24.58H107.584V17.62C107.584 16.42 107.384 15.548 106.984 15.004C106.6 14.46 105.968 14.188 105.088 14.188V11.98ZM101.2 17.62C101.2 15.668 101.536 14.244 102.208 13.348C102.896 12.436 103.856 11.98 105.088 11.98V14.188C104.064 14.188 103.208 14.468 102.52 15.028C101.848 15.572 101.512 16.436 101.512 17.62H101.2Z" fill="#F6F8F9"/>
<path d="M111.663 11.98H114.063V24.58H111.663V11.98ZM112.863 9.69999C112.527 9.69999 112.231 9.57999 111.975 9.33999C111.719 9.08399 111.591 8.77999 111.591 8.42799C111.591 8.09199 111.719 7.80399 111.975 7.56399C112.231 7.30799 112.527 7.17999 112.863 7.17999C113.215 7.17999 113.519 7.30799 113.775 7.56399C114.031 7.80399 114.159 8.09199 114.159 8.42799C114.159 8.77999 114.031 9.08399 113.775 9.33999C113.519 9.57999 113.215 9.69999 112.863 9.69999Z" fill="#F6F8F9"/>
<path d="M122.859 11.98C124.523 11.98 125.787 12.452 126.651 13.396C127.515 14.324 127.947 15.732 127.947 17.62V24.58H125.667V17.62C125.667 16.468 125.435 15.612 124.971 15.052C124.507 14.476 123.803 14.188 122.859 14.188V11.98ZM116.595 11.98H118.875V24.58H116.595V11.98ZM118.563 17.62C118.563 15.652 118.923 14.22 119.643 13.324C120.379 12.428 121.451 11.98 122.859 11.98V14.188C121.643 14.188 120.675 14.46 119.955 15.004C119.235 15.548 118.875 16.42 118.875 17.62H118.563Z" fill="#F6F8F9"/>
<path d="M135.614 24.82C134.382 24.82 133.31 24.54 132.398 23.98C131.502 23.42 130.814 22.644 130.334 21.652C129.87 20.66 129.638 19.532 129.638 18.268C129.638 17.02 129.87 15.9 130.334 14.908C130.814 13.916 131.502 13.14 132.398 12.58C133.31 12.02 134.382 11.74 135.614 11.74C137.406 11.74 138.83 12.372 139.886 13.636C140.958 14.9 141.494 16.764 141.494 19.228H139.166C139.278 17.884 139.19 16.828 138.902 16.06C138.63 15.292 138.214 14.756 137.654 14.452C137.11 14.148 136.43 13.996 135.614 13.996C134.382 13.996 133.454 14.348 132.83 15.052C132.222 15.74 131.918 16.812 131.918 18.268C131.918 19.724 132.222 20.804 132.83 21.508C133.454 22.196 134.382 22.54 135.614 22.54C136.59 22.54 137.35 22.356 137.894 21.988C138.454 21.604 138.822 21.036 138.998 20.284H141.302C141.174 21.132 140.862 21.9 140.366 22.588C139.87 23.276 139.214 23.82 138.398 24.22C137.582 24.62 136.654 24.82 135.614 24.82ZM130.454 17.38H140.582L141.47 19.228H130.454V17.38Z" fill="#F6F8F9"/>
<path d="M143.174 11.98H145.454V24.58H143.174V11.98ZM145.142 17.74C145.142 16.604 145.27 15.612 145.526 14.764C145.798 13.9 146.206 13.22 146.75 12.724C147.31 12.228 148.014 11.98 148.862 11.98C149.246 11.98 149.574 12.012 149.846 12.076C150.134 12.124 150.398 12.22 150.638 12.364V14.74C150.334 14.564 150.046 14.444 149.774 14.38C149.518 14.3 149.214 14.26 148.862 14.26C148.19 14.26 147.598 14.388 147.086 14.644C146.574 14.884 146.174 15.268 145.886 15.796C145.598 16.308 145.454 16.956 145.454 17.74H145.142Z" fill="#F6F8F9"/>
<defs>
<linearGradient id="paint0_linear_253_92" x1="7.2425e-08" y1="26" x2="79" y2="26" gradientUnits="userSpaceOnUse">
<stop stop-color="#5B39B8"/>
<stop offset="1" stop-color="#906BF5"/>
</linearGradient>
<linearGradient id="paint1_linear_253_92" x1="83" y1="26" x2="158.638" y2="26" gradientUnits="userSpaceOnUse">
<stop stop-color="#5B39B8"/>
<stop offset="1" stop-color="#906BF5"/>
</linearGradient>
</defs>
</svg>
