<svg xmlns="http://www.w3.org/2000/svg" xmlns:xlink="http://www.w3.org/1999/xlink" viewBox="0 0 1065.74 247.88"><defs><style>.cls-1{fill:url(#Безымянный_градиент_7);}.cls-2{fill:url(#Безымянный_градиент_7-2);}.cls-3{fill:url(#Безымянный_градиент_7-3);}.cls-4{fill:url(#Безымянный_градиент_7-4);}.cls-5{fill:url(#Безымянный_градиент_7-5);}.cls-6{fill:url(#Безымянный_градиент_7-6);}.cls-7{fill:url(#Безымянный_градиент_7-7);}.cls-8{fill:url(#Безымянный_градиент_7-8);}.cls-9{fill:url(#Безымянный_градиент_7-9);}.cls-10{fill:#fff;}.cls-11{fill:url(#Безымянный_градиент_11);}.cls-12{fill:url(#Безымянный_градиент_11-2);}</style><linearGradient id="Безымянный_градиент_7" x1="-4427.86" y1="-2780.03" x2="-4263.17" y2="-3118.92" gradientTransform="matrix(0.38, 0.92, -0.92, 0.38, -901.44, 5192.35)" gradientUnits="userSpaceOnUse"><stop offset="0" stop-color="#8c68f1"/><stop offset="0.2" stop-color="#8966ee"/><stop offset="0.37" stop-color="#8160e3"/><stop offset="0.53" stop-color="#7356d2"/><stop offset="0.68" stop-color="#6049b9"/><stop offset="0.83" stop-color="#463799"/><stop offset="0.98" stop-color="#282172"/><stop offset="1" stop-color="#221d6b"/></linearGradient><linearGradient id="Безымянный_градиент_7-2" x1="-4359.47" y1="-2746.8" x2="-4194.78" y2="-3085.68" gradientTransform="translate(-2759.63 4406.65) rotate(90)" xlink:href="#Безымянный_градиент_7"/><linearGradient id="Безымянный_градиент_7-3" x1="-4362.22" y1="-2748.13" x2="-4197.52" y2="-3087.02" gradientTransform="matrix(0.4, 0.92, -0.92, 0.4, -792.06, 5214.39)" xlink:href="#Безымянный_градиент_7"/><linearGradient id="Безымянный_градиент_7-4" x1="-4417.29" y1="-2774.9" x2="-4252.6" y2="-3113.78" gradientTransform="matrix(0.4, 0.92, -0.92, 0.4, -792.06, 5214.39)" xlink:href="#Безымянный_градиент_7"/><linearGradient id="Безымянный_градиент_7-5" x1="-4309.63" y1="-2722.58" x2="-4144.94" y2="-3061.46" gradientTransform="matrix(0.4, 0.92, -0.92, 0.4, -792.06, 5214.39)" xlink:href="#Безымянный_градиент_7"/><linearGradient id="Безымянный_градиент_7-6" x1="-4423.87" y1="-2778.1" x2="-4259.18" y2="-3116.98" gradientTransform="translate(-2791.31 4412.02) rotate(90)" xlink:href="#Безымянный_градиент_7"/><linearGradient id="Безымянный_градиент_7-7" x1="-4301.23" y1="-2718.5" x2="-4136.54" y2="-3057.38" gradientTransform="matrix(0.4, 0.92, -0.92, 0.4, -792.06, 5214.39)" xlink:href="#Безымянный_градиент_7"/><linearGradient id="Безымянный_градиент_7-8" x1="-4362.89" y1="-2748.46" x2="-4198.2" y2="-3087.35" gradientTransform="matrix(0.4, 0.92, -0.92, 0.4, -792.06, 5214.39)" xlink:href="#Безымянный_градиент_7"/><linearGradient id="Безымянный_градиент_7-9" x1="-4296.17" y1="-2716.04" x2="-4131.48" y2="-3054.92" gradientTransform="matrix(-0.16, 0.99, -0.99, -0.16, -3362.2, 3875.04)" xlink:href="#Безымянный_градиент_7"/><linearGradient id="Безымянный_градиент_11" x1="213.1" y1="116.73" x2="384.07" y2="116.73" gradientUnits="userSpaceOnUse"><stop offset="0" stop-color="#8b67ef"/><stop offset="0.31" stop-color="#8864ec"/><stop offset="0.57" stop-color="#7f5be1"/><stop offset="0.81" stop-color="#6f4dd0"/><stop offset="1" stop-color="#5e3cbc"/></linearGradient><linearGradient id="Безымянный_градиент_11-2" x1="319.31" y1="129.64" x2="490.27" y2="129.64" xlink:href="#Безымянный_градиент_11"/></defs><g id="Слой_2" data-name="Слой 2"><g id="Слой_1-2" data-name="Слой 1"><circle class="cls-1" cx="191.02" cy="50.73" r="28.51" transform="translate(-1.03 4.07) rotate(-1.22)"/><circle class="cls-2" cx="147.61" cy="125.15" r="28.51" transform="translate(-37.87 69.94) rotate(-23.72)"/><path class="cls-3" d="M26.85,111.32a14,14,0,1,0-7.2,18.47A14,14,0,0,0,26.85,111.32Z"/><path class="cls-4" d="M73,51.82a14,14,0,1,0-7.19,18.47A14,14,0,0,0,73,51.82Z"/><circle class="cls-5" cx="57.44" cy="177.14" r="14.01"/><circle class="cls-6" cx="118.98" cy="52.4" r="17.83" transform="translate(-11.03 52.28) rotate(-23.72)"/><circle class="cls-7" cx="108.53" cy="188.45" r="17.83"/><circle class="cls-8" cx="70.84" cy="118.39" r="17.83"/><circle class="cls-9" cx="188.46" cy="197.15" r="28.51" transform="translate(-76.9 134.14) rotate(-32.93)"/><path class="cls-10" d="M607.78,105.51V51.71h21.56V182.93H607.78v-56.8H551.54v56.8H530V51.71h21.56v53.8Z"/><path class="cls-10" d="M698.51,185.37q-20.81,0-35-14.25A47.68,47.68,0,0,1,649,136.07,47.72,47.72,0,0,1,663.46,101q14.24-14.24,35-14.24t35,14.24A47.72,47.72,0,0,1,748,136.07a47.68,47.68,0,0,1-14.44,35.05Q719.33,185.37,698.51,185.37Zm-29.24-49.3q0,12.75,8.43,21.18a29.87,29.87,0,0,0,41.62,0q8.43-8.43,8.43-21.18t-8.43-21.19a29.9,29.9,0,0,0-41.62,0Q669.27,123.33,669.27,136.07Z"/><path class="cls-10" d="M841,103.07V89.2h19.87v89.42q0,21.38-14.06,32.81-13.87,11.43-34.12,11.43-32.43,0-44.43-22.68l17.44-10.12q7.3,14.43,27.37,14.43,13.11,0,20.52-6.84t7.41-19V167.19q-11.44,16.31-32.62,16.3a45.42,45.42,0,0,1-33.56-14.05,47.77,47.77,0,0,1-13.68-34.31q0-20.25,13.68-34.12a44.76,44.76,0,0,1,33.56-14.24Q829.54,86.77,841,103.07ZM789.8,156.13a29.37,29.37,0,0,0,21.37,8.43q12.75,0,21.19-8.43a28.24,28.24,0,0,0,8.62-21,28.24,28.24,0,0,0-8.62-21q-8.45-8.43-21.19-8.43a29.37,29.37,0,0,0-21.37,8.43,28.53,28.53,0,0,0-8.43,21A28.53,28.53,0,0,0,789.8,156.13Z"/><path class="cls-10" d="M923.65,157.25l24-68H969.2l-36,96.73q-13.5,36.38-45.74,34.49V201.49q9.36.57,15.18-3.94t9.75-14.43l.94-1.88-39.75-92h22.12Z"/><path class="cls-10" d="M1030.68,134.94l35.06,48H1042.3l-23.24-32.05-23.43,32.05H972l35.24-48.17L973.88,89.2h23.43l21.56,29.62,21.56-29.62h23.62Z"/><path class="cls-11" d="M319.31,55.23c0-8.33-20.75-6.83-45.5-1V184c0,7.85-1,29.6-2,49.44-.05-.08-.1-.15-.14-.23l-36.1-62.53L217,138.58a29.25,29.25,0,0,1,0-29.29l18.54-32.12,9.31-16.12,8.17-14.15,18.62-32.26A29.29,29.29,0,0,1,297,0h87V100.07H319.31Z"/><path class="cls-12" d="M486.35,138.58,467.8,170.71l-9.3,16.1L450.33,201,431.7,233.23a29.29,29.29,0,0,1-25.36,14.65h-87V147.8h64.76v44.84c0,8.33,26.1,5.66,45.49,1V63.85c0-7.45,1.05-29.3,0-52.44a31.31,31.31,0,0,1,2.16,3.23l36.1,62.52,18.55,32.13A29.3,29.3,0,0,1,486.35,138.58Z"/></g></g></svg>